<svg id="Layer_1" data-name="Layer 1" xmlns="http://www.w3.org/2000/svg" viewBox="0 0 242 50"><defs><style>.cls-1,.cls-2{fill:#52abff;}.cls-2,.cls-3{fill-rule:evenodd;}.cls-3,.cls-4{fill:#0a1352;}</style></defs><title>logo</title><path class="cls-1" d="M31.93,17.28c.83-7,11.44-8.3,16.44-4.46,2.46,2-.15,5.14-2.32,3.55-2.68-1.7-8.76-2.5-9.52,1.27C35.55,23.58,51.3,20.17,51,29.8c-.25,9.2-13.57,9.42-18.57,5.29A2.69,2.69,0,0,1,32,31.54a2.14,2.14,0,0,1,3.23-.25c3,2,10.6,3.55,11.15-1.6C45.87,24.34,30.81,27.56,31.93,17.28Z"/><path class="cls-1" d="M65.48,25.82,62,29.62v5.07c0,3-4.78,3-4.78,0V14c0-3.08,4.78-3.19,4.78,0v9.19L72.5,12.42a2.27,2.27,0,0,1,3.44,0,2.09,2.09,0,0,1,0,3.23c-2.13,2.53-4.63,4.78-7,7.31l8.47,10.25c2.18,3-2.46,5.17-3.91,2.86Z"/><path class="cls-2" d="M12.53,31.77H5.82c3.16-5.12,11-9.06,11-17.35,0-4.22-2.79-6.61-3.12-6.34s.56,1.12.9,2.56H9.38a.49.49,0,0,0-.49.48v.24a.49.49,0,0,0,.49.48h5.35s0,0,0,.05a11.13,11.13,0,0,1-1.24,5.23H5.38a.49.49,0,0,0-.48.49v.23a.49.49,0,0,0,.48.49h7.44A22,22,0,0,1,9.88,21.9c-4,4-7.41,7.31-7.41,11.77,0,5.36,2.75,7.76,3,7.51s-.23-.56-.59-1.9H9.13a.48.48,0,0,0,.48-.48v-.24a.48.48,0,0,0-.48-.48H4.65A15.44,15.44,0,0,1,4.52,36a7.26,7.26,0,0,1,.66-3h7.35a.48.48,0,0,0,.48-.48v-.24A.49.49,0,0,0,12.53,31.77Z"/><path class="cls-3" d="M16.44,31.81a9.49,9.49,0,0,0-1-3.43,10,10,0,0,0-.91-1.47,7.9,7.9,0,0,0-1.13-1.26.2.2,0,0,0-.25,0,.2.2,0,0,0,0,.28h0a7.25,7.25,0,0,1,1.19,2.75H10.15a.49.49,0,0,0-.49.49v.23a.48.48,0,0,0,.49.48h4.32a8.2,8.2,0,0,1-.14,1.86A9.43,9.43,0,0,1,14,33.13c0,.12-.07.22-.1.32a2.88,2.88,0,0,0-.13.31q-.13.3-.3.63c-.08.18-.18.36-.27.54H6a.48.48,0,0,0-.48.48v.23a.49.49,0,0,0,.48.49h6.5c-.18.29-.35.58-.54.86-.56.87-1.15,1.74-1.75,2.62S9,41.35,8.35,42.22,7.07,44,6.39,44.8c-.33.42-.68.84-1,1.25l-.53.61a1.82,1.82,0,0,0-.46.68h0a.2.2,0,0,0,0,.11.24.24,0,0,0,.28.18,1.92,1.92,0,0,0,.71-.45L6,46.66,7.22,45.6c.83-.71,1.66-1.44,2.47-2.18a32,32,0,0,0,4.49-4.93c.32-.46.64-.94.93-1.44a11.21,11.21,0,0,0,.79-1.59,7.57,7.57,0,0,0,.3-.88c0-.15.07-.31.11-.47a4.47,4.47,0,0,0,.07-.47A8.63,8.63,0,0,0,16.44,31.81Z"/><path class="cls-3" d="M13.93,2.58a.23.23,0,0,0-.28-.17,1.76,1.76,0,0,0-.7.45l-.63.52L11.07,4.45c-.83.71-1.66,1.43-2.47,2.18a31.84,31.84,0,0,0-4.48,4.92c-.33.47-.65.94-.94,1.45a11.65,11.65,0,0,0-.79,1.58,7.73,7.73,0,0,0-.29.89,3.84,3.84,0,0,0-.11.46,4.8,4.8,0,0,0-.08.48,8.53,8.53,0,0,0,0,1.82,9.05,9.05,0,0,0,1,3.43,8.76,8.76,0,0,0,.9,1.47A7.62,7.62,0,0,0,4.87,24.4a.21.21,0,0,0,.25,0,.2.2,0,0,0,0-.28v0A7,7,0,0,1,4,21.36H9.05v-1.2H3.82A8.72,8.72,0,0,1,4,18.31a11,11,0,0,1,.35-1.4,2.24,2.24,0,0,1,.11-.31l.13-.31c.08-.21.19-.42.29-.63l.25-.49h7.6a.48.48,0,0,0,.48-.48v-.24a.48.48,0,0,0-.48-.48H5.77c.18-.31.37-.61.56-.92.56-.87,1.15-1.74,1.76-2.61S9.31,8.69,9.94,7.82s1.29-1.73,2-2.57c.34-.42.68-.84,1-1.25l.53-.62a2,2,0,0,0,.47-.68h0A.24.24,0,0,0,13.93,2.58Z"/><path class="cls-4" d="M172.35,14.38c0-1.3.29-2.57,2.18-2.57,1.3,0,1.59.32,2.57,1.27l12,15V14a2.54,2.54,0,0,1,2.28-2.5,2.76,2.76,0,0,1,2.57,2.5V34.4A2.42,2.42,0,0,1,192,36.9a3.64,3.64,0,0,1-2.93-1.27l-12-15.2v14a2.25,2.25,0,0,1-2.28,2.5,2.39,2.39,0,0,1-2.47-2.5Z"/><path class="cls-4" d="M204.29,14c0-3,4.78-3.08,4.78,0V34.69c0,3-4.78,3.08-4.78,0Z"/><path class="cls-4" d="M218.12,24.19c0-7,4.38-13,12.71-13a11.82,11.82,0,0,1,8.29,3.23,2.48,2.48,0,0,1,.11,3.51,2.45,2.45,0,0,1-3.33-.11,6.27,6.27,0,0,0-5.07-2c-5.58,0-8.26,3.94-8.26,8.36s2.64,8.62,8.26,8.62a8.38,8.38,0,0,0,5.64-2.32,2.46,2.46,0,0,1,3.34.43,2.52,2.52,0,0,1-.4,3.41c-2.54,2.35-5.58,2.82-8.58,2.82C222.06,37.15,218.12,31.18,218.12,24.19Z"/><path class="cls-4" d="M147.56,16.63h13.26c3.08,0,3-4.78,0-4.78H147.56C144.49,11.85,144.56,16.63,147.56,16.63Z"/><path class="cls-4" d="M160.72,32.16H150.1V26.75h10.72c3.08,0,3-4.78,0-4.78H147.56a2.21,2.21,0,0,0-2.27,2.27h0V34.65a2.22,2.22,0,0,0,2.25,2.25h13.19A2.38,2.38,0,1,0,160.72,32.16Z"/><path class="cls-1" d="M82.8,15.48c-1.74-2.32,2.17-5.25,4-2.43l6.34,9.45,6.41-9.45c1.92-2.64,5.93,0,4.05,2.43L95.47,27.32v7.49c0,3.19-4.78,3.11-4.78,0V27.32Z"/><path class="cls-4" d="M136.07,24.05a2.48,2.48,0,0,0-2.57-2.13h-8.65c-2.9,0-3.22,4.41,0,4.41h6.84v5.32c-1.34,1-3.22,1.16-5.43,1.16-4.74,0-8.29-3.26-8.29-8.62a8.64,8.64,0,0,1,8.62-8.62,7.62,7.62,0,0,1,5.1,2.29,2.35,2.35,0,0,0,3.15-3.48,11.84,11.84,0,0,0-8.25-3.19,12.91,12.91,0,0,0-13.32,13c0,8.62,5.39,13,13,13,1.83,0,9.77-.28,9.77-2.5C136,33.82,136.07,24.05,136.07,24.05Z"/></svg>